# xmcd CD database file
#
# Track frame offsets:
#	150
#	16242
#	27658
#	39381
#	53427
#	63121
#	76251
#	90374
#	103323
#	118265
#	132302
#	146334
#	159824
#	173041
#
# Disc length: 2501 seconds
#
# Revision: 0
# Processed by: cddbd v1.5.2PL0 Copyright (c) Steve Scherf et al.
# Submitted via: CDex 1.70beta2
#
DISCID=a709c30e
DTITLE=Lowell Fulson - Soul
DYEAR=1966
DGENRE=Blues
TTITLE0=Black Nights
TTITLE1=Talkin' Woman
TTITLE2=Shattered Dreams
TTITLE3=Sittin' Here Thinkin'
TTITLE4=Little Angel
TTITLE5=Change Your Ways
TTITLE6=Blues Around Midnight
TTITLE7=Every Time It Rains
TTITLE8=Just One More Time
TTITLE9=Ask At Any Door In Town
TTITLE10=Too Many Drivers
TTITLE11=My Aching Back
TTITLE12=Strange Feeling
TTITLE13=Trouble I'm In
EXTD=YEAR: 1966
EXTT0=
EXTT1=
EXTT2=
EXTT3=
EXTT4=
EXTT5=
EXTT6=
EXTT7=
EXTT8=
EXTT9=
EXTT10=
EXTT11=
EXTT12=
EXTT13=
PLAYORDER=
